<?xml version="1.0" encoding="utf-8"?>
<!-- Generator: Adobe Illustrator 27.6.1, SVG Export Plug-In . SVG Version: 6.00 Build 0)  -->
<svg version="1.1" id="Layer_1" xmlns="http://www.w3.org/2000/svg" xmlns:xlink="http://www.w3.org/1999/xlink" x="0px" y="0px"
	 viewBox="0 0 1574.58 338.82" style="enable-background:new 0 0 1574.58 338.82;" xml:space="preserve">
<style type="text/css">
	.st0{fill:url(#SVGID_1_);}
	.st1{fill:#3721A6;}
	.st2{fill:#FFFFFF;}
</style>
<g>
	
		<linearGradient id="SVGID_1_" gradientUnits="userSpaceOnUse" x1="211.2388" y1="-878.7836" x2="211.2388" y2="-485.3158" gradientTransform="matrix(1 0 0 -1 0 -515.2087)">
		<stop  offset="0" style="stop-color:#362AB5"/>
		<stop  offset="0.19" style="stop-color:#3021D1"/>
		<stop  offset="0.47" style="stop-color:#5C3BFF"/>
		<stop  offset="0.83" style="stop-color:#8243FF"/>
		<stop  offset="1" style="stop-color:#884DFF"/>
	</linearGradient>
	<path class="st0" d="M404.05,131.69l-64.87-47.95L238.34,8.99C222.12-3,200.97-3,184.75,8.99L86.03,83.03c0,0-0.71,0-0.71,0.71
		l-68.4,51.48c-22.56,16.92-22.56,51.48,0,68.4l3.53,2.82l13.4,10.58l2.82,1.41l149.49,111.41c16.22,11.99,37.37,11.99,53.59,0
		l21.86-16.22h0.71l143.14-106.48C428.73,185.98,428.02,149.31,404.05,131.69L404.05,131.69z"/>
	<path class="st1" d="M337.76,167.65c0.71-7.05-5.64-10.58-5.64-10.58L219.3,70.34c-10.58-6.35-17.63,0-17.63,0L88.85,157.78
		c-4.23,3.53-4.94,7.05-4.94,10.58v28.91c0,5.64,3.53,9.87,3.53,9.87s33.14,24.68,45.13,33.85c9.17,8.46,19.04-0.71,19.04-0.71
		l49.36-38.78c9.87-7.05,17.63,0,17.63,0l47.95,37.37c12.69,9.17,21.86,0.71,21.86,0.71l43.72-33.85c4.23-4.23,5.64-7.76,5.64-11.28
		V167.65L337.76,167.65z"/>
	<path class="st2" d="M88.85,157.78l112.82-87.44c0,0,6.35-6.35,17.63,0l113.53,86.03c0,0,11.99,8.46,0,21.86l-43.72,33.85
		c0,0-9.17,8.46-21.86-0.71l-47.95-37.37c0,0-7.76-7.05-17.63,0l-49.36,38.78c0,0-9.17,9.17-19.04,0.71
		c-11.99-9.17-45.13-33.85-45.13-33.85S78.27,167.65,88.85,157.78z"/>
	<path class="st2" d="M940.02,72.45h-29.04L875.15,229.7h26.92l5-27.5h36.16l5,27.5h27.63L940.02,72.45z M910.08,181.75l14.37-76.38
		l14.37,76.38H910.08z"/>
	<path class="st2" d="M808.09,72.45v34.55c-0.71,0-1.41-0.71-2.82-0.71c-3.53-0.71-7.76-1.41-12.69-1.41
		c-10.58,0-18.33,2.82-23.97,8.46c-6.35,6.35-8.46,14.1-8.46,23.27v62.76c0,10.58,2.82,18.33,8.46,23.97
		c6.35,6.35,14.1,7.05,23.27,7.05h41.6V72.45H808.09z M808.09,135.92v64.17c0,3.53-0.71,4.94-2.82,7.05
		c-2.82,1.41-4.94,2.82-7.76,2.82c-3.53,0-6.35-0.71-8.46-2.82c-1.41-1.41-2.82-3.53-2.82-7.05v-64.17c0-3.53,0.71-4.94,2.82-7.05
		c2.82-1.41,4.94-2.82,8.46-2.82s6.35,0.71,7.76,2.82C807.39,129.57,808.09,132.39,808.09,135.92z"/>
	<path class="st2" d="M1221.31,72.45v34.55c-0.71,0-1.41-0.71-2.82-0.71c-3.53-0.71-7.76-1.41-12.69-1.41
		c-10.58,0-18.33,2.82-23.97,8.46c-5.64,5.64-8.46,14.1-8.46,23.27v62.76c0,10.58,2.82,18.33,8.46,23.97
		c6.35,6.35,14.1,7.05,23.27,7.05h41.6V72.45H1221.31z M1221.31,135.92v64.17c0,3.53-0.71,4.94-2.82,7.05
		c-2.82,1.41-4.94,2.82-7.76,2.82c-3.53,0-6.35-0.71-8.46-2.82c-1.41-1.41-2.82-3.53-2.82-7.05v-64.17c0-3.53,0.71-4.94,2.82-7.05
		c2.82-1.41,4.94-2.82,8.46-2.82s6.35,0.71,7.76,2.82C1220.6,129.57,1221.31,132.39,1221.31,135.92z"/>
	<path class="st2" d="M624.05,199.38c0,3.53-0.71,4.94-2.82,7.05c-2.82,1.41-4.94,1.41-7.76,1.41c-3.53,0-6.35,0-8.46-1.41
		c-1.41-1.41-2.82-3.53-2.82-7.05V105.6H576.1v94.49c0,6.35,0.71,10.58,2.82,14.81c9.17,16.22,31.73,14.81,44.42,14.81
		c1.41,38.08-41.6,35.96-41.6,35.96l-0.71,26.09c0,0,67.69,1.41,67.69-62.05V105.6h-26.09L624.05,199.38L624.05,199.38z"/>
	<path class="st2" d="M1549.9,199.38c0,3.53-0.71,4.94-2.82,7.05c-2.82,1.41-4.94,1.41-7.76,1.41c-3.53,0-6.35,0-8.46-1.41
		c-1.41-1.41-2.82-3.53-2.82-7.05V105.6h-26.09v94.49c0,6.35,0.71,10.58,2.82,14.81c9.17,16.22,31.73,14.81,44.42,14.81
		c1.41,38.08-41.6,35.96-41.6,35.96l-0.71,26.09c0,0,67.69,1.41,67.69-62.05V105.6h-26.09L1549.9,199.38L1549.9,199.38z"/>
	<path class="st2" d="M734.05,112.65c0,0-9.17-7.76-24.68-7.76h-42.31V229h26.09v-93.08c0-3.53,0.71-4.94,3.53-7.05
		c2.82-1.41,6.35-2.82,9.17-2.82c3.53,0,7.05,0.71,9.17,2.82c2.82,1.41,3.53,3.53,3.53,7.05v93.78h26.09v-94.49
		C744.63,125.34,741.11,118.29,734.05,112.65L734.05,112.65z"/>
	<path class="st2" d="M562.7,95.02V71.75h-59.94V229h26.8v-64.17h33.85v-23.27h-33.85V95.02C529.56,95.02,562.7,95.02,562.7,95.02z"
		/>
	<path class="st2" d="M1480.8,114.76c-5.64-7.05-12.69-10.58-21.86-11.99c-4.94,0-9.17,1.41-14.1,3.53
		c-4.94,2.12-9.17,6.35-11.99,11.28c-0.71,1.41-1.41,1.41-2.12,0.71c-5.64-10.58-14.1-15.51-25.39-15.51
		c-3.53,0-7.76,0.71-11.28,2.12c-0.07,0.03-0.15,0.05-0.22,0.07c-1.41,0.48-2.79,1.06-4.1,1.77c-1.28,0.69-2.49,1.51-3.6,2.46
		c-1.22,1.05-2.25,2.26-3.28,3.49c-0.19,0.22-0.37,0.45-0.55,0.67c-0.04,0.05-0.14,0.18-0.23,0.28c0,0,0-5.22,0-5.22v-2.82h-2.82
		h-20.45h-2.82v2.82v117.76V229h2.82h20.45h2.82v-2.82V147.2c0-6.35,1.41-10.58,3.53-14.1c2.12-3.53,5.64-4.94,9.87-4.94
		c3.53,0,7.05,1.41,9.17,4.94c2.12,3.53,3.53,7.76,3.53,14.1v51.48h-0.03V229h2.85h20.45h2.8v-2.13c0.02-0.23,0.03-0.46,0.03-0.69
		V147.2c0-6.35,0.71-10.58,3.53-14.1c2.12-3.53,6.35-4.94,10.58-4.94c4.23,0,8.46,1.41,10.58,4.94s3.53,7.76,3.53,14.1v51.48v27.5
		V229h2.82h20.45h2.82v-2.82v-27.5v-53.59C1488.56,132.39,1485.74,121.81,1480.8,114.76z"/>
	<g>
		<path class="st2" d="M1340.48,177.52v-35.96c0-11.28-2.82-21.16-9.87-28.21c-7.05-7.05-16.92-10.58-29.62-10.58
			c-11.99,0-22.56,3.53-29.62,10.58c-7.05,7.05-9.87,16.22-9.87,28.21v49.36c0,12.69,2.82,21.86,9.87,28.91
			c7.05,7.05,17.63,10.58,29.62,10.58s21.16-2.82,28.21-9.17c5.09-5.09,8.36-11.53,10.19-19.7c0.75-3.35,1.1-6.77,1.1-10.2l0,0
			h-26.31v0.78c0,2.23-0.34,4.46-1.08,6.56c-0.62,1.78-1.69,3.93-3.18,5.05c-2.82,2.12-6.1,2.7-9.63,2.7
			c-3.53,0-7.32-0.74-10.14-4.27c-2.82-2.82-3.96-7.72-3.96-12.65v-11.99H1340.48z M1286.18,145.08c0-4.94,1.41-8.46,4.23-11.99
			c2.82-3.53,5.64-4.94,9.87-5.64c4.23,0,7.76,2.12,10.58,4.93c2.82,3.53,4.23,7.76,4.23,12.69v11.99h-28.91V145.08z"/>
	</g>
	<path class="st2" d="M1066.18,149.03v-6.56c0,0,0,0,0,0v-0.92c0-10.58-3.53-19.74-11.28-26.8c-7.76-7.05-17.63-10.58-30.32-10.58
		c-11.99,0-22.56,3.53-29.62,10.58c-7.76,7.05-11.28,16.22-11.28,28.21v48.65c0,11.99,4.23,21.86,11.28,28.91
		c7.05,7.05,16.92,10.58,29.62,11.28c12.69,0,22.56-3.53,30.32-10.58c7.2-6.54,10.75-14.3,11.22-24.39h0.06v-2.4v-4.23v-3.24h-26.09
		v3.24v2.12c0,3.53-1.41,8.46-4.23,11.28c-2.82,2.82-7.05,4.23-11.28,4.23c-4.23,0-8.46-2.12-11.28-5.64
		c-2.82-2.82-4.23-7.05-4.23-11.99v-44.42c0-4.94,1.41-8.46,4.23-11.99c2.82-3.53,7.76-5.64,11.99-5.64c4.23,0,7.76,1.41,10.58,4.23
		c2.82,2.82,4.23,7.05,4.23,11.28v2.12c0,0,0,0,0,0v3.24H1066.18z"/>
	<path class="st2" d="M1147.27,114.76c-7.76-7.05-16.22-10.58-28.91-10.58c-11.28,0-20.45,3.53-28.21,9.87
		c-7.62,6.93-11.83,17.94-12.65,29.02c-0.02,0.08-0.04,3.63-0.04,3.63h28.08l0.09-2.53c0.02-0.16,0.03-0.33,0.03-0.51
		c0.23-5.32,2.12-9.87,4.23-11.99c2.12-2.12,4.23-3.53,7.76-3.53c4.23,0,7.76,1.41,10.58,4.94c2.82,3.53,4.23,8.46,4.23,14.1v6.35
		c0,0.71-0.71,1.41-1.41,1.41h-11.99c-5.64,0-10.58,0.71-16.22,2.12c-16.92,4.94-26.8,20.45-26.8,38.08c0,0.71,0,1.41,0,2.12
		c0.71,8.46,2.82,17.63,8.46,23.97c6.35,6.35,14.81,9.87,23.27,9.87c9.87,0,17.63-3.53,23.27-9.87c0.9-1.01,1.41-1.5,1.41-1.5v1.5
		v4.94v4.94h26.09v-4.94v-4.94v-77.57C1158.55,131.69,1155.02,122.52,1147.27,114.76z M1133.16,190.92c0,5.64-2.12,9.87-5.64,12.69
		c-3.53,2.82-7.76,4.23-12.69,3.53c-3.53,0-7.05-0.71-9.17-3.53c-2.12-2.82-3.53-6.35-3.53-11.28c0-5.64,1.41-9.87,4.94-12.69
		c3.53-2.82,7.76-4.23,12.69-4.23h11.99c0.71,0,1.41,0.71,1.41,1.41V190.92z"/>
</g>
</svg>
